<?xml version="1.0" encoding="utf-8"?>
<!-- Generator: Adobe Illustrator 28.0.0, SVG Export Plug-In . SVG Version: 6.00 Build 0)  -->
<svg version="1.1" id="Layer_1" xmlns="http://www.w3.org/2000/svg" xmlns:xlink="http://www.w3.org/1999/xlink" x="0px" y="0px"
	 viewBox="0 0 1920 1080" style="enable-background:new 0 0 1920 1080;" xml:space="preserve">
<style type="text/css">
	.st0{fill:#FFFFFF;}
</style>
<g>
	<defs>
		<rect id="SVGID_1_" x="-982.6" y="-336.6" width="3532" height="1896"/>
	</defs>
	<clipPath id="SVGID_00000163041552049184594350000001733201490208004004_">
		<use xlink:href="#SVGID_1_"  style="overflow:visible;"/>
	</clipPath>
</g>
<g>
	<path class="st0" d="M979.5,576.7c-60.3,0-119.6,0-178.9,0c-0.8,12.3,17.7,34.5,34.1,43c18.9,9.7,53.3,13.3,80.2-10.5
		c9.7,9.9,19.4,19.8,29.1,29.7c-7.7,7.3-27.4,24-57.9,29.4c-43.4,7.7-76.1-13.5-82.8-18.1c-39.3-26.7-47-68.2-48.4-76.8
		c-4.8-29.4,3.4-52.3,5.6-57.9c12.2-31.9,40.5-60.1,78.6-69.6c39-9.7,80.1,2.3,105.6,28c29.1,29.3,32.6,71,34.2,89.5
		C979.4,568.9,979.5,573.5,979.5,576.7z M933.2,533.1c-1.3-4.2-2-7.2-3.2-9.9c-5.1-12.2-14-21.3-25-28c-17.7-10.8-36.9-13-56.9-8
		c-17.5,4.4-30.2,15.7-40.5,29.8c-3.3,4.5-6.1,9.4-6.9,16C844.6,534,888.3,533.5,933.2,533.1z"/>
	<path class="st0" d="M1159,653.9c-9.8,4.1-18.3,8.4-27.3,11.3c-14.2,4.6-28.8,5.4-43.6,3.9c-26.3-2.8-47.6-14.8-65-34.2
		c-8.9-10-14.9-21.9-18.2-34.9c-7.2-28.1-8-56.4,0.9-84.1c11.8-36.9,38.1-58.2,75.6-65.3c25.7-4.8,50.5-0.9,73.3,12.7
		c1.5,0.9,3,1.6,4.9,2.7c4.8-8.5,10.3-11.2,13.3-12.3c2.4-0.8,4.5-1.1,16-1.1c5.7,0,10.4,0,14,0c0,36.1,0.1,72.3,0,108.4
		c-0.1,36.1-0.2,72.3,0,108.4c-2.2,0-5.6,0-9.7,0c-13,0.1-14.8,0.4-17.6-0.2C1171.2,668.3,1165.1,665.1,1159,653.9z M1042.8,562.2
		c-1,7.4,0.9,16.1,3.1,24.7c2.8,10.5,8,19.5,16.5,26.6c9.5,7.9,20.1,12,32.4,13.2c25.1,2.5,54.1-12.7,61.1-41.5
		c3.4-13.9,4.5-27.8,1.9-41.8c-1.4-7.4-3.4-14.8-6.6-21.6c-6.6-14-18.3-22.5-32.7-27.9c-20.3-7.6-49.3-2.3-64.6,21.3
		C1045,529.1,1042.3,544.5,1042.8,562.2z"/>
	<path class="st0" d="M499.6,556.1c1,61.6-52,114.3-114.3,114C324.4,669.7,272,620,271.8,556.5c-0.2-63.9,50.9-114.7,114.6-114.3
		C451.4,442.6,500.3,496.6,499.6,556.1z M383.7,484.8c-33.8-1.1-70.2,29.9-69.1,72.2c1.1,42.7,35.8,73.1,77.1,70
		c35.2-2.6,67.7-33.4,65.4-75.4C455,512.1,421.7,483.4,383.7,484.8z"/>
	<path class="st0" d="M1413,669.4h-47.5c-1.2-61.4-1.2-102.4-0.4-113.3c0.6-8.6,0-15.5-0.7-29.3c-0.4-8.7-4.1-15.8-10.1-22.5
		c-12.4-13.9-28.1-16.5-45.2-14.9c-11.2,1.1-21.2,5.5-29.2,14c-4.4,4.7-7.5,9.9-9.2,15.6c-1.3,4.4-1.3,8-1.3,9.5
		c-0.1,9.7-0.2,68.6-0.3,140.9h-47.3c-0.5-57.9-0.1-110.2,0-138.2c0-6.8,0.2-20.4,7.3-35.3c5.1-10.8,12.9-20.2,23.4-28.5
		c18.1-14.2,38.8-21,61.4-21.5c25.7-0.5,49.2,6.3,69.4,23.1c10.4,8.7,18,18.5,22.9,29.7c5.6,13,5.9,24.5,6,30.8
		C1412.3,552,1413.8,606.9,1413,669.4z"/>
	<path class="st0" d="M733,612c-29.7,47.5-78.2,68.2-130.6,53.6c-52.6-14.7-86.6-64.4-82.4-119.4c4.1-53.6,48.6-99.1,103.2-103.5
		c54-4.4,92.2,26.2,109.4,58c-12.3,5.9-24.7,11.8-37,17.8c-3.6-5.5-10.5-14.3-21.9-21.8c-13.9-9.1-27-11.2-31.2-11.7
		c-3.8-0.4-17.6-1.9-32.1,3.1c-22.9,8-45.9,31.7-47.7,63.7c-1.7,29.1,14.7,56,39.4,68.3c29.3,14.6,57.8,2.3,61.7,0.6
		c17.6-8,27.4-21,31.4-27.1C707.9,599.8,720.5,605.9,733,612z"/>
	<path class="st0" d="M1577.2,547.5c-34.1,0-68.2,0-102.3-0.1c3.1-11.4,6.2-22.8,9.3-34.2c33.9-0.6,67.7-1.2,101.6-1.8
		c9-33.8,18-67.5,26.9-101.3c14.8-0.1,29.5-0.3,44.3-0.4c-8.4,33.6-16.6,67.6-25.2,101.9c34,0.2,68.1,0.4,102.1,0.6
		c-2.8,11.5-5.6,23-8.4,34.4c-34,0.6-68,1.1-102,1.7c-9.1,33.5-18.2,67.1-27.2,100.6c-14.2,0.3-28.5,0.5-42.7,0.8
		C1561.4,615.8,1569.3,581.6,1577.2,547.5z"/>
</g>
</svg>
